<svg xmlns="http://www.w3.org/2000/svg" viewBox="0 0 512 512">
  <!-- Blue background -->
  <rect width="512" height="512" rx="114" fill="#4772FA"/>
  <!-- Original logo mark (cropped to mark area, no text), scaled and centered -->
  <g transform="translate(56, 40) scale(0.39)">
    <svg viewBox="300 220 470 460" width="1024" height="1024">
      <path d="M 540.50 626.55 C527.61,628.09 504.56,628.27 494.00,626.91 C478.25,624.88 456.96,619.44 443.00,613.88 C433.45,610.07 414.35,599.99 406.53,594.63 C372.18,571.08 345.07,539.00 330.39,504.53 C326.53,495.45 326.40,494.83 328.58,495.67 C329.45,496.00 329.73,496.55 329.21,496.89 C328.64,497.25 328.98,498.86 330.04,500.83 C331.66,503.83 331.94,503.98 332.82,502.33 C334.45,499.27 334.57,496.39 333.15,494.67 C332.04,493.34 332.01,492.09 333.01,487.77 C334.32,482.10 336.10,480.00 339.59,480.00 C341.15,480.00 342.11,479.11 342.85,477.00 C343.98,473.76 345.50,473.30 348.25,475.39 C350.69,477.24 350.43,480.48 347.75,481.78 C344.13,483.54 357.51,482.02 363.82,479.96 L 369.13 478.22 L 370.07 480.68 C370.58,482.03 371.00,483.30 371.00,483.50 C371.00,484.39 383.28,506.54 385.08,508.89 C386.18,510.33 389.19,514.42 391.77,518.00 C397.70,526.20 413.16,543.70 417.40,547.00 C419.16,548.38 421.71,550.56 423.05,551.85 C436.83,565.07 462.11,579.11 487.01,587.37 C509.12,594.70 514.78,595.51 543.00,595.42 C569.63,595.34 571.08,595.12 596.95,587.42 C607.32,584.33 636.69,569.98 643.36,564.75 C645.63,562.96 648.35,560.83 649.40,560.00 C650.44,559.17 652.04,557.83 652.93,557.00 C653.83,556.17 656.42,554.23 658.68,552.69 C663.25,549.56 676.75,535.69 681.24,529.50 C682.84,527.30 685.69,523.83 687.57,521.79 C692.44,516.53 696.00,511.04 696.00,508.80 C696.00,507.75 696.34,507.09 696.75,507.34 C697.16,507.60 698.62,506.29 700.00,504.43 C702.34,501.27 705.06,499.50 703.34,502.25 C702.91,502.94 702.48,504.00 702.39,504.61 C702.08,506.65 691.81,526.44 688.18,532.00 C653.14,585.63 600.44,619.37 540.50,626.55 Z" fill="white"/>
      <path d="M 383.00 334.12 C383.00,336.99 382.62,337.29 380.25,336.34 C378.46,335.61 378.70,333.51 381.12,328.76 C383.01,325.07 383.38,324.80 384.48,326.30 C385.87,328.21 388.24,328.47 390.95,327.02 C392.67,326.11 392.68,325.83 391.18,322.52 C390.30,320.59 389.00,319.00 388.29,319.00 C386.34,319.00 386.65,318.07 391.10,310.48 C393.36,306.64 395.56,302.60 396.00,301.50 C396.78,299.54 403.50,291.38 410.85,283.50 C414.24,279.87 420.60,273.94 428.73,266.84 C434.57,261.74 445.54,254.19 450.50,251.86 C453.25,250.56 456.07,248.96 456.77,248.30 C459.19,246.01 478.52,237.08 483.50,235.94 C486.25,235.31 490.08,234.43 492.00,233.99 C493.92,233.55 498.65,232.27 502.50,231.15 C511.59,228.51 521.72,227.56 525.50,229.00 C527.83,229.89 528.13,230.30 526.97,231.04 C525.81,231.77 525.98,231.97 527.75,231.98 C531.83,232.01 530.10,233.78 524.75,235.04 C510.30,238.46 491.93,246.47 478.00,255.43 C470.15,260.48 468.27,261.25 467.38,259.80 C466.93,259.08 467.15,258.98 468.00,259.50 C468.87,260.04 469.07,259.92 468.59,259.15 C467.47,257.34 463.70,259.76 464.27,261.94 C464.83,264.08 463.51,265.74 454.61,274.06 C450.44,277.95 447.54,280.01 447.27,279.25 C446.74,277.73 444.00,277.57 444.00,279.06 C444.00,279.64 443.56,279.84 443.01,279.51 C442.44,279.16 442.28,279.56 442.62,280.45 C442.95,281.30 443.95,282.04 444.86,282.08 C445.95,282.13 446.07,282.33 445.22,282.67 C444.51,282.96 443.27,282.64 442.47,281.97 C440.51,280.35 440.59,281.45 442.57,283.43 C443.44,284.29 443.69,285.00 443.14,285.00 C442.59,285.00 441.45,284.31 440.61,283.46 C438.31,281.17 438.15,281.22 435.87,285.00 C434.70,286.92 433.42,288.73 433.02,289.00 C432.63,289.27 431.72,290.60 431.01,291.95 C429.88,294.09 429.96,294.59 431.63,295.88 C433.48,297.31 433.36,297.66 428.24,305.43 C425.32,309.87 421.94,315.63 420.73,318.23 C419.52,320.84 417.93,323.19 417.21,323.47 C416.49,323.75 416.17,323.53 416.51,322.98 C417.30,321.71 415.09,319.60 412.50,319.15 C411.40,318.96 410.21,318.33 409.86,317.76 C409.48,317.16 408.77,317.56 408.14,318.73 C407.55,319.84 407.34,321.01 407.68,321.34 C408.88,322.55 405.69,325.00 402.91,325.00 C400.85,325.00 400.21,325.40 400.61,326.43 C400.99,327.42 399.47,328.66 395.73,330.43 C389.17,333.54 387.34,333.64 386.48,330.95 C385.55,328.01 383.00,330.34 383.00,334.12 Z" fill="white"/>
    </svg>
  </g>
</svg>
