<svg xmlns="http://www.w3.org/2000/svg" width="1024" height="1024" viewBox="0 0 1024 1024">
<g>
<path d="M 540.50 626.55 C527.61,628.09 504.56,628.27 494.00,626.91 C478.25,624.88 456.96,619.44 443.00,613.88 C433.45,610.07 414.35,599.99 406.53,594.63 C372.18,571.08 345.07,539.00 330.39,504.53 C326.53,495.45 326.40,494.83 328.58,495.67 C329.45,496.00 329.73,496.55 329.21,496.89 C328.64,497.25 328.98,498.86 330.04,500.83 C331.66,503.83 331.94,503.98 332.82,502.33 C334.45,499.27 334.57,496.39 333.15,494.67 C332.04,493.34 332.01,492.09 333.01,487.77 C334.32,482.10 336.10,480.00 339.59,480.00 C341.15,480.00 342.11,479.11 342.85,477.00 C343.98,473.76 345.50,473.30 348.25,475.39 C350.69,477.24 350.43,480.48 347.75,481.78 C344.13,483.54 357.51,482.02 363.82,479.96 L 369.13 478.22 L 370.07 480.68 C370.58,482.03 371.00,483.30 371.00,483.50 C371.00,484.39 383.28,506.54 385.08,508.89 C386.18,510.33 389.19,514.42 391.77,518.00 C397.70,526.20 413.16,543.70 417.40,547.00 C419.16,548.38 421.71,550.56 423.05,551.85 C436.83,565.07 462.11,579.11 487.01,587.37 C509.12,594.70 514.78,595.51 543.00,595.42 C569.63,595.34 571.08,595.12 596.95,587.42 C607.32,584.33 636.69,569.98 643.36,564.75 C645.63,562.96 648.35,560.83 649.40,560.00 C650.44,559.17 652.04,557.83 652.93,557.00 C653.83,556.17 656.42,554.23 658.68,552.69 C663.25,549.56 676.75,535.69 681.24,529.50 C682.84,527.30 685.69,523.83 687.57,521.79 C692.44,516.53 696.00,511.04 696.00,508.80 C696.00,507.75 696.34,507.09 696.75,507.34 C697.16,507.60 698.62,506.29 700.00,504.43 C702.34,501.27 705.06,499.50 703.34,502.25 C702.91,502.94 702.48,504.00 702.39,504.61 C702.08,506.65 691.81,526.44 688.18,532.00 C653.14,585.63 600.44,619.37 540.50,626.55 ZM 621.63 541.39 C619.50,542.28 617.64,543.00 617.50,543.00 C617.37,543.00 617.01,532.54 616.72,519.75 C616.17,495.74 615.56,491.57 611.14,481.59 C609.05,476.85 598.96,463.33 596.30,461.70 C594.31,460.48 594.71,458.32 598.14,451.89 C602.25,444.18 608.34,438.69 617.81,434.17 C625.49,430.50 625.51,430.50 639.00,430.50 L 652.50 430.50 L 660.33 434.24 C668.03,437.91 677.00,445.55 677.00,448.42 C677.00,449.15 677.67,450.31 678.50,451.00 C679.32,451.68 680.90,455.16 682.00,458.73 C683.63,464.00 684.00,468.03 684.00,480.27 L 684.00 495.33 L 672.25 507.00 C665.79,513.42 656.98,521.25 652.68,524.40 C645.57,529.60 631.60,537.24 621.63,541.39 ZM 587.00 550.61 C571.07,553.20 548.07,551.96 531.00,547.58 C523.54,545.67 514.02,542.07 513.96,541.13 C513.94,540.79 513.67,538.76 513.36,536.63 C512.98,533.96 513.14,532.97 513.90,533.44 C514.63,533.89 515.00,532.73 515.00,530.00 C515.00,527.51 514.60,526.13 514.00,526.50 C513.44,526.84 513.01,526.10 513.02,524.81 C513.03,523.24 513.29,522.91 513.84,523.78 C514.92,525.47 517.00,520.99 517.00,516.98 C517.00,514.85 516.61,514.21 515.56,514.62 C514.76,514.92 513.92,515.92 513.67,516.84 C513.43,517.75 513.18,515.74 513.12,512.36 C513.02,507.28 513.28,506.25 514.61,506.36 C515.50,506.44 516.61,505.49 517.08,504.25 C517.60,502.88 517.56,502.00 516.97,502.00 C516.44,502.00 516.01,501.21 516.02,500.25 C516.03,498.75 516.17,498.72 517.00,500.00 C517.79,501.23 517.97,501.11 517.98,499.36 C517.99,498.18 517.33,496.95 516.50,496.64 C515.37,496.21 514.96,496.86 514.85,499.28 C514.72,502.11 514.65,502.19 514.30,499.88 C513.83,496.83 517.30,486.27 519.50,484.07 C520.60,482.98 521.00,482.91 521.00,483.84 C521.00,484.55 521.50,484.81 522.11,484.43 C522.86,483.97 522.99,484.47 522.50,486.00 C522.02,487.52 522.14,488.03 522.88,487.57 C523.57,487.15 523.75,487.48 523.38,488.45 C522.68,490.28 524.58,490.57 525.38,488.75 C525.68,488.06 525.64,488.85 525.29,490.50 C524.95,492.15 523.99,494.00 523.15,494.62 C521.98,495.49 521.66,497.72 521.75,504.47 C521.82,509.28 522.13,513.46 522.44,513.77 C523.33,514.67 527.71,510.11 529.04,506.90 C529.70,505.31 531.00,504.00 531.92,504.00 C534.74,504.00 536.00,501.82 536.00,496.92 C536.00,492.25 536.01,492.23 540.75,490.48 C543.36,489.52 548.31,488.53 551.75,488.28 L 558.00 487.83 L 558.02 491.16 C558.03,493.69 558.27,494.13 559.00,493.00 C559.55,492.15 559.98,492.00 559.98,492.66 C560.00,493.53 560.84,493.55 563.25,492.76 C565.04,492.18 567.16,491.52 567.97,491.29 C569.13,490.98 569.17,490.72 568.16,490.10 C567.45,489.66 566.21,488.03 565.41,486.48 C564.03,483.83 564.10,483.50 566.62,480.88 C569.06,478.33 569.47,478.21 571.37,479.54 C572.51,480.35 575.39,481.00 577.77,481.00 C581.58,481.00 582.24,480.66 583.30,478.15 C584.61,475.05 586.91,474.76 589.51,477.37 C590.36,478.22 591.63,478.70 592.32,478.43 C593.82,477.86 597.21,482.19 599.51,487.62 C602.83,495.46 604.00,505.60 604.00,526.55 L 604.00 546.92 L 599.75 548.07 C597.41,548.71 591.67,549.85 587.00,550.61 ZM 185.50 711.50 L 184.50 767.50 L 169.00 768.08 L 169.00 681.00 L 183.63 681.00 L 185.76 684.78 C186.92,686.86 192.47,695.97 198.09,705.03 C203.71,714.09 210.38,724.98 212.90,729.23 C215.43,733.47 217.73,736.94 218.00,736.93 C218.27,736.92 220.80,732.99 223.61,728.20 C226.42,723.42 233.84,710.84 240.11,700.26 L 251.50 681.01 L 258.76 681.01 L 266.02 681.00 L 265.50 767.50 L 250.50 767.50 L 250.23 739.75 C250.09,724.49 249.64,712.00 249.23,712.00 C248.83,712.00 247.19,714.36 245.58,717.25 C239.59,728.02 223.67,754.56 222.16,756.30 C221.09,757.54 219.50,758.00 217.05,757.80 C213.63,757.51 213.18,756.97 204.74,743.00 C199.93,735.03 193.63,724.67 190.74,720.00 ZM 411.33 767.06 C397.29,771.89 381.47,767.88 371.71,757.02 C365.90,750.56 363.58,743.93 363.62,733.83 C363.64,727.23 364.10,725.24 366.91,719.54 C374.58,703.94 393.26,697.13 412.25,702.99 C427.93,707.84 437.45,724.70 434.01,741.54 C431.48,753.90 423.51,762.87 411.33,767.06 ZM 334.07 765.80 C326.71,769.13 312.80,769.84 306.00,767.23 C299.01,764.54 295.84,762.52 291.30,757.83 C284.70,751.03 282.51,745.22 282.51,734.50 C282.52,726.70 282.89,724.75 285.29,719.84 C288.61,713.05 294.26,707.71 301.88,704.14 C306.84,701.81 308.74,701.50 318.02,701.50 C327.90,701.50 328.96,701.70 335.23,704.79 C347.40,710.79 353.00,720.39 353.00,735.29 C353.00,742.26 352.57,744.40 350.13,749.50 C346.48,757.16 341.12,762.60 334.07,765.80 ZM 784.86 766.25 C784.10,767.67 782.56,768.00 776.57,768.00 L 769.22 768.00 L 767.50 763.75 C766.56,761.41 762.94,751.62 759.46,742.00 C755.98,732.38 751.31,719.66 749.07,713.74 C746.83,707.82 745.00,702.74 745.00,702.44 C745.00,702.15 748.45,702.05 752.68,702.21 L 760.35 702.50 L 764.16 713.00 C766.26,718.78 769.89,729.01 772.22,735.75 C774.56,742.49 776.78,748.00 777.14,748.00 C777.51,748.00 778.72,745.41 779.83,742.25 C782.92,733.40 789.79,714.15 792.14,707.75 L 794.24 702.00 L 808.81 702.00 L 810.31 706.25 C812.41,712.21 819.83,732.70 821.63,737.50 C822.45,739.70 823.57,742.96 824.11,744.75 C824.65,746.54 825.46,748.00 825.90,748.00 C826.68,748.00 831.51,735.48 839.49,712.75 L 843.26 702.00 L 850.74 702.00 C857.46,702.00 858.14,702.18 857.51,703.75 C857.13,704.71 855.09,710.22 852.99,716.00 C850.89,721.78 846.92,732.58 844.19,740.00 C841.45,747.42 838.09,756.65 836.72,760.50 L 834.24 767.50 L 818.93 768.09 L 816.82 763.33 C814.80,758.76 811.34,749.52 804.63,730.76 C801.64,722.41 800.00,719.93 800.00,723.78 C800.00,725.50 786.73,762.73 784.86,766.25 ZM 383.00 334.12 C383.00,336.99 382.62,337.29 380.25,336.34 C378.46,335.61 378.70,333.51 381.12,328.76 C383.01,325.07 383.38,324.80 384.48,326.30 C385.87,328.21 388.24,328.47 390.95,327.02 C392.67,326.11 392.68,325.83 391.18,322.52 C390.30,320.59 389.00,319.00 388.29,319.00 C386.34,319.00 386.65,318.07 391.10,310.48 C393.36,306.64 395.56,302.60 396.00,301.50 C396.78,299.54 403.50,291.38 410.85,283.50 C414.24,279.87 420.60,273.94 428.73,266.84 C434.57,261.74 445.54,254.19 450.50,251.86 C453.25,250.56 456.07,248.96 456.77,248.30 C459.19,246.01 478.52,237.08 483.50,235.94 C486.25,235.31 490.08,234.43 492.00,233.99 C493.92,233.55 498.65,232.27 502.50,231.15 C511.59,228.51 521.72,227.56 525.50,229.00 C527.83,229.89 528.13,230.30 526.97,231.04 C525.81,231.77 525.98,231.97 527.75,231.98 C531.83,232.01 530.10,233.78 524.75,235.04 C510.30,238.46 491.93,246.47 478.00,255.43 C470.15,260.48 468.27,261.25 467.38,259.80 C466.93,259.08 467.15,258.98 468.00,259.50 C468.87,260.04 469.07,259.92 468.59,259.15 C467.47,257.34 463.70,259.76 464.27,261.94 C464.83,264.08 463.51,265.74 454.61,274.06 C450.44,277.95 447.54,280.01 447.27,279.25 C446.74,277.73 444.00,277.57 444.00,279.06 C444.00,279.64 443.56,279.84 443.01,279.51 C442.44,279.16 442.28,279.56 442.62,280.45 C442.95,281.30 443.95,282.04 444.86,282.08 C445.95,282.13 446.07,282.33 445.22,282.67 C444.51,282.96 443.27,282.64 442.47,281.97 C440.51,280.35 440.59,281.45 442.57,283.43 C443.44,284.29 443.69,285.00 443.14,285.00 C442.59,285.00 441.45,284.31 440.61,283.46 C438.31,281.17 438.15,281.22 435.87,285.00 C434.70,286.92 433.42,288.73 433.02,289.00 C432.63,289.27 431.72,290.60 431.01,291.95 C429.88,294.09 429.96,294.59 431.63,295.88 C433.48,297.31 433.36,297.66 428.24,305.43 C425.32,309.87 421.94,315.63 420.73,318.23 C419.52,320.84 417.93,323.19 417.21,323.47 C416.49,323.75 416.17,323.53 416.51,322.98 C417.30,321.71 415.09,319.60 412.50,319.15 C411.40,318.96 410.21,318.33 409.86,317.76 C409.48,317.16 408.77,317.56 408.14,318.73 C407.55,319.84 407.34,321.01 407.68,321.34 C408.88,322.55 405.69,325.00 402.91,325.00 C400.85,325.00 400.21,325.40 400.61,326.43 C400.99,327.42 399.47,328.66 395.73,330.43 C389.17,333.54 387.34,333.64 386.48,330.95 C385.55,328.01 383.00,330.34 383.00,334.12 ZM 724.62 766.11 C717.47,769.25 703.72,769.74 695.84,767.14 C680.08,761.94 672.00,750.88 672.00,734.50 C672.00,720.45 677.86,710.66 689.77,704.79 C696.05,701.70 697.10,701.50 706.98,701.50 C716.77,701.50 717.87,701.71 722.86,704.47 C733.80,710.53 740.36,721.73 739.79,733.40 L 739.50 739.50 L 713.75 739.77 C695.10,739.96 688.63,739.94 687.90,741.98 C687.51,743.04 688.70,744.67 690.53,747.20 C690.68,747.40 690.83,747.60 690.98,747.81 C694.87,753.18 698.97,755.19 707.25,755.79 C714.70,756.32 721.37,754.46 724.53,750.96 C727.00,748.23 727.63,748.43 732.02,753.25 L 735.88 757.50 L 732.81 760.68 C731.12,762.43 727.43,764.88 724.62,766.11 ZM 591.50 767.27 C570.87,773.66 547.09,764.84 536.24,746.79 C528.82,734.44 528.61,716.30 535.73,702.71 C539.31,695.87 546.52,688.34 552.35,685.32 C570.39,675.99 593.27,677.78 607.76,689.66 L 612.17 693.27 L 606.94 698.56 L 601.71 703.86 L 598.10 700.98 C584.44,690.04 565.03,691.20 554.11,703.61 C549.17,709.23 547.00,715.44 547.00,724.00 C547.00,733.00 549.23,738.96 554.84,744.91 C561.15,751.63 568.53,754.98 577.00,754.98 C585.69,754.99 589.50,753.78 595.77,749.01 C598.67,746.80 601.37,745.02 601.77,745.04 C602.17,745.06 604.74,747.14 607.49,749.67 L 612.48 754.26 L 607.99 758.19 C602.79,762.74 598.49,765.11 591.50,767.27 ZM 465.02 747.50 L 464.50 767.50 L 450.00 768.09 L 450.00 702.00 L 465.00 702.00 L 465.00 708.96 L 469.48 706.11 C475.88,702.06 481.80,700.66 490.25,701.21 C501.85,701.96 509.40,707.11 513.00,716.74 C514.79,721.50 515.00,724.53 515.00,745.04 L 515.00 768.00 L 500.00 768.00 L 500.00 748.37 C500.00,726.81 499.25,722.40 494.83,717.98 C489.90,713.05 478.02,713.05 471.76,717.98 C466.41,722.18 465.58,725.82 465.02,747.50 ZM 641.05 748.00 L 640.50 767.50 L 626.00 768.09 L 626.00 702.00 L 640.00 702.00 L 640.00 706.00 C640.00,710.52 640.84,710.95 643.60,707.86 C646.48,704.62 654.96,701.02 659.75,701.01 L 664.00 701.00 L 664.00 716.00 L 658.45 716.00 C652.07,716.00 648.37,717.61 645.43,721.65 C641.86,726.58 641.61,728.05 641.05,748.00 ZM 393.09 755.33 C394.42,755.60 397.83,755.72 400.69,755.59 C412.65,755.03 420.77,743.41 418.51,730.06 C417.76,725.65 413.37,718.94 409.60,716.47 C406.25,714.28 397.14,713.47 392.62,714.96 C382.17,718.41 377.16,728.54 379.67,741.11 C380.46,745.07 389.42,754.55 393.09,755.33 ZM 309.36 753.54 C328.38,763.17 345.92,740.55 333.65,722.22 C329.54,716.08 326.22,714.50 317.43,714.50 C311.43,714.50 309.74,714.91 306.30,717.18 C300.21,721.22 297.61,727.30 298.24,736.09 C298.87,744.88 302.01,749.81 309.36,753.54 ZM 688.00 726.87 C688.00,728.97 688.28,729.00 706.61,729.00 L 725.22 729.00 L 724.56 726.25 C721.12,711.77 697.99,708.57 690.02,721.47 C688.91,723.27 688.00,725.70 688.00,726.87 ZM 601.87 465.95 C601.97,467.08 602.27,467.13 603.20,466.20 C603.86,465.54 604.87,465.01 605.45,465.02 C606.03,465.02 605.83,465.47 605.00,466.00 C604.10,466.58 603.98,466.98 604.69,466.98 C605.35,466.99 606.16,466.55 606.50,466.00 C606.84,465.45 607.57,465.00 608.12,465.00 C608.67,465.00 608.84,465.44 608.51,465.99 C608.16,466.55 608.55,466.73 609.39,466.40 C610.30,466.05 611.01,464.23 611.20,461.77 C611.49,457.79 611.84,457.39 616.98,455.00 C617.79,454.62 618.70,453.27 619.00,452.00 C619.30,450.73 620.21,449.38 621.02,449.00 C625.61,446.87 626.53,446.09 626.82,444.11 C627.00,442.91 627.97,441.41 628.97,440.78 C631.19,439.40 630.51,437.00 627.89,437.00 C626.85,437.00 626.00,436.55 626.00,436.00 C626.00,435.45 625.33,435.00 624.50,435.00 C623.67,435.00 623.00,434.55 623.00,434.00 C623.00,432.49 621.35,432.80 619.50,434.65 C618.17,435.97 618.11,436.45 619.18,437.13 C619.90,437.59 620.08,437.98 619.56,437.98 C619.04,437.99 619.49,438.65 620.56,439.45 C622.41,440.84 622.39,440.87 620.09,440.29 C618.41,439.87 617.90,440.03 618.40,440.84 C618.90,441.65 617.89,442.00 615.12,442.00 C610.58,442.00 609.90,442.72 608.49,449.00 C607.36,454.06 604.29,455.57 604.78,450.83 C605.13,447.44 603.13,446.10 601.35,448.54 C599.77,450.70 599.54,456.00 601.03,456.00 C601.60,456.00 601.99,457.90 601.90,460.25 C601.82,462.59 601.81,465.15 601.87,465.95 ZM 500.17 515.25 C499.94,529.55 499.52,534.99 498.67,534.95 C496.70,534.88 488.46,530.26 486.93,528.38 C486.04,527.28 485.97,526.90 486.75,527.37 C487.44,527.78 488.00,527.67 488.00,527.13 C488.00,526.58 489.24,525.99 490.75,525.82 C493.50,525.50 493.50,525.49 493.79,516.50 C493.95,511.55 494.12,503.80 494.15,499.28 C494.20,493.48 494.64,490.72 495.63,489.89 C496.41,489.24 497.15,488.89 497.27,489.11 C500.33,494.42 500.49,495.91 500.17,515.25 ZM 328.73 485.30 C328.42,488.38 327.73,491.66 327.22,492.58 C326.45,493.94 325.96,493.34 324.64,489.45 C322.82,484.12 322.53,481.70 323.97,483.99 C324.74,485.21 324.91,485.12 324.93,483.49 C324.93,482.39 325.23,480.04 325.58,478.25 C326.03,476.01 325.85,475.00 325.01,475.00 C324.22,475.00 324.00,475.85 324.38,477.39 C325.13,480.36 322.48,483.19 321.65,480.30 C317.99,467.44 314.08,443.59 315.42,442.25 C315.74,441.93 316.01,442.53 316.03,443.58 C316.06,445.42 316.11,445.42 317.12,443.67 C317.71,442.66 318.52,439.74 318.92,437.17 C319.55,433.10 319.75,433.99 320.42,444.00 C320.85,450.33 320.95,458.50 320.64,462.16 C320.06,469.19 320.51,470.00 325.08,470.00 C326.16,470.00 327.00,470.69 327.00,471.57 C327.00,472.44 327.70,473.84 328.55,474.69 C329.40,475.54 329.82,476.51 329.49,476.84 C329.16,477.17 328.48,476.78 327.97,475.97 C327.32,474.92 327.12,475.40 327.28,477.65 C327.40,479.39 327.91,480.55 328.41,480.25 C328.93,479.92 329.07,482.04 328.73,485.30 ZM 648.75 419.36 C645.67,421.28 641.25,422.21 640.55,421.08 C640.23,420.56 640.99,419.95 642.24,419.71 C643.48,419.47 642.36,419.21 639.75,419.14 C637.12,419.06 635.00,418.52 635.00,417.93 C635.00,417.34 634.29,417.56 633.43,418.43 C632.66,419.20 632.23,419.67 631.71,419.81 C630.95,420.02 630.00,419.53 627.54,418.28 L 627.12 418.06 C622.65,415.78 617.32,410.01 615.37,405.35 C613.92,401.88 613.51,391.43 614.70,388.33 C615.32,386.73 615.48,386.82 616.01,389.00 C616.34,390.38 616.15,392.75 615.58,394.27 C614.83,396.29 614.88,397.58 615.77,399.01 C616.45,400.09 617.00,402.34 617.00,404.02 C617.00,407.83 619.94,412.72 621.10,410.84 C621.54,410.13 622.24,409.91 622.67,410.33 C623.09,410.76 622.88,411.45 622.20,411.88 C621.26,412.46 621.38,413.02 622.73,414.20 C625.86,416.93 628.81,418.11 629.54,416.93 C629.90,416.35 630.78,416.08 631.48,416.35 C632.18,416.62 633.20,416.40 633.74,415.86 C634.28,415.32 637.89,414.78 641.77,414.67 C647.53,414.50 649.01,414.78 649.90,416.21 C650.78,417.62 650.56,418.23 648.75,419.36 ZM 403.55 369.78 C402.44,376.12 401.07,380.18 400.97,377.42 C400.95,376.91 400.65,372.90 400.30,368.50 C399.32,356.15 399.40,353.72 400.75,353.26 C401.44,353.03 402.00,353.59 402.00,354.51 C402.00,355.43 402.93,356.43 404.07,356.73 C405.75,357.17 406.02,357.78 405.49,359.89 C405.12,361.32 404.25,365.77 403.55,369.78 ZM 589.53 475.04 C592.43,478.06 592.72,479.29 589.86,476.43 C589.00,475.57 587.44,474.71 586.40,474.51 C585.35,474.31 584.50,474.08 584.50,473.98 C584.50,473.89 582.93,473.60 581.00,473.32 C579.08,473.05 576.96,472.38 576.30,471.83 C575.63,471.28 574.55,471.16 573.89,471.57 C573.13,472.04 572.95,471.88 573.40,471.15 C573.80,470.52 574.88,469.97 575.81,469.93 C577.19,469.87 577.13,469.70 575.50,469.00 C573.66,468.21 573.70,468.13 576.00,468.05 C578.04,467.99 578.22,467.78 577.00,466.92 C575.86,466.12 576.09,466.03 578.00,466.56 C582.92,467.92 586.18,470.09 585.59,471.62 C585.28,472.44 585.40,472.87 585.86,472.59 C586.32,472.30 587.97,473.41 589.53,475.04 ZM 646.00 375.00 C646.00,376.11 635.38,376.26 633.00,375.18 C632.17,374.81 631.39,373.94 631.25,373.25 C630.85,371.25 641.05,371.14 648.25,373.07 C652.24,374.14 653.28,375.57 650.07,375.57 C649.01,375.57 648.37,375.22 648.63,374.79 C648.90,374.35 648.42,374.00 647.56,374.00 C646.70,374.00 646.00,374.45 646.00,375.00 ZM 554.41 399.74 C549.41,399.71 544.69,400.05 543.91,400.49 C542.97,401.02 542.84,400.96 543.50,400.30 C546.93,396.88 562.19,394.57 565.89,396.91 C568.57,398.61 563.74,399.81 554.41,399.74 ZM 319.41 385.00 C319.80,387.48 319.96,393.55 319.76,398.50 C319.57,403.45 319.29,406.38 319.14,405.00 C318.98,403.62 318.49,401.60 318.03,400.50 C317.25,398.59 317.16,398.62 316.18,401.00 C314.87,404.17 315.65,395.46 317.47,386.50 L 318.70 380.50 ZM 410.77 340.81 C409.05,345.37 407.66,344.75 408.39,339.75 C408.82,336.84 408.53,334.59 407.49,332.60 C406.65,331.00 406.24,328.83 406.57,327.78 C407.13,326.02 407.33,325.99 408.92,327.43 C409.88,328.30 410.99,328.68 411.38,328.28 C411.78,327.89 411.81,328.33 411.45,329.27 C411.09,330.22 410.41,330.76 409.96,330.47 C408.62,329.65 409.21,334.34 410.66,336.06 C411.70,337.31 411.73,338.26 410.77,340.81 ZM 463.55 507.25 C463.57,508.76 463.27,510.00 462.88,510.00 C461.89,510.00 449.01,495.65 449.53,495.13 C449.76,494.90 450.64,495.28 451.48,495.98 C452.31,496.68 453.00,496.91 453.00,496.50 C453.00,496.09 453.65,496.29 454.44,496.95 C455.23,497.61 455.67,498.70 455.41,499.39 C454.77,501.05 457.91,503.74 461.00,504.16 C462.96,504.43 463.51,505.09 463.55,507.25 ZM 577.32 490.34 C576.96,490.70 578.17,491.00 580.00,491.00 C581.83,491.00 583.04,490.70 582.68,490.34 C582.31,489.98 582.50,489.10 583.09,488.39 C584.67,486.49 583.30,485.00 580.00,485.00 C576.70,485.00 575.33,486.49 576.91,488.39 C577.50,489.10 577.69,489.98 577.32,490.34 ZM 404.16 436.08 C404.06,437.64 403.41,438.67 402.50,438.67 C401.37,438.67 401.02,437.52 401.07,434.08 C401.15,428.67 402.46,424.64 403.36,427.00 C404.04,428.79 404.37,432.53 404.16,436.08 ZM 536.09 471.95 C533.81,473.17 530.00,473.35 530.00,472.23 C530.00,470.96 540.96,464.81 542.28,465.35 C543.18,465.71 543.16,465.86 542.19,465.92 C541.47,465.96 541.13,466.40 541.43,466.89 C541.73,467.37 541.20,468.39 540.24,469.14 C538.67,470.37 538.63,470.33 539.87,468.75 C541.33,466.89 540.42,466.45 538.12,467.90 C537.36,468.38 537.04,469.25 537.40,469.84 C537.76,470.42 537.17,471.37 536.09,471.95 ZM 579.54 444.96 C578.51,446.09 576.33,447.69 574.68,448.51 C571.80,449.95 571.75,449.93 573.34,448.17 C574.25,447.17 575.00,446.00 575.00,445.58 C575.00,444.07 578.53,440.50 580.14,440.38 C582.22,440.23 581.95,442.30 579.54,444.96 ZM 622.42 559.39 C620.12,560.28 616.20,560.14 615.59,559.15 C615.16,558.44 621.19,556.00 623.37,556.00 C624.71,556.00 623.92,558.82 622.42,559.39 ZM 489.00 522.10 C489.00,523.33 488.30,524.00 487.00,524.00 C485.85,524.00 485.00,523.33 485.00,522.44 C485.00,521.55 484.25,520.95 483.25,521.05 C480.47,521.34 479.00,521.06 479.00,520.25 C479.00,519.84 481.25,519.66 484.00,519.85 C488.13,520.13 489.00,520.53 489.00,522.10 ZM 528.07 479.01 C528.03,479.29 526.61,479.58 524.91,479.65 L 521.83 479.77 L 525.11 476.39 C526.92,474.52 528.50,473.00 528.63,473.00 C528.83,473.00 528.70,474.31 528.07,479.01 ZM 638.03 438.02 C638.82,438.51 640.26,438.17 641.64,437.17 C643.77,435.62 644.39,433.75 642.72,433.92 C642.33,433.97 641.09,434.00 639.97,434.00 C637.54,434.00 636.16,436.86 638.03,438.02 ZM 557.34 464.00 C555.11,464.00 551.08,464.29 548.39,464.64 C545.70,464.99 543.80,464.96 544.17,464.56 C545.36,463.26 559.32,461.92 560.40,463.00 C561.07,463.67 560.04,464.00 557.34,464.00 ZM 547.38 565.89 C545.66,565.95 542.91,566.27 541.27,566.60 C539.08,567.03 538.13,566.77 537.68,565.60 C536.97,563.76 539.79,563.56 546.50,564.94 C550.24,565.72 550.30,565.78 547.38,565.89 ZM 659.73 408.91 C659.66,409.85 658.45,411.47 657.05,412.51 C654.80,414.19 654.67,414.20 655.94,412.63 C657.04,411.26 657.09,410.67 656.15,410.09 C655.48,409.68 655.20,408.64 655.53,407.78 C656.33,405.71 659.90,406.67 659.73,408.91 ZM 655.04 543.06 C647.24,543.99 647.09,543.77 653.19,540.47 C655.70,539.11 655.86,539.14 655.72,541.01 C655.64,542.10 655.33,543.03 655.04,543.06 ZM 439.00 451.64 C439.00,452.77 437.84,455.00 436.43,456.59 L 433.86 459.50 L 435.48 455.50 C437.51,450.51 439.00,448.87 439.00,451.64 ZM 685.20 515.60 C680.32,520.64 678.18,521.93 681.07,518.08 C683.41,514.96 688.00,511.09 688.00,512.23 C688.00,512.49 686.74,514.01 685.20,515.60 ZM 658.26 388.89 C658.53,389.93 658.45,391.28 658.07,391.88 C657.02,393.59 655.13,391.20 655.73,388.92 C656.37,386.47 657.62,386.46 658.26,388.89 ZM 469.99 534.25 C470.01,535.50 467.58,535.02 466.25,533.50 C464.38,531.38 464.72,531.06 467.49,532.34 C468.86,532.98 469.99,533.84 469.99,534.25 ZM 630.50 418.00 C630.16,418.55 630.36,419.00 630.94,419.00 C631.52,419.00 632.00,418.55 632.00,418.00 C632.00,417.45 631.80,417.00 631.56,417.00 C631.32,417.00 630.84,417.45 630.50,418.00 ZM 332.12 498.73 C332.81,499.41 333.11,500.22 332.81,500.53 C332.50,500.83 331.94,500.28 331.56,499.29 C331.02,497.87 331.14,497.75 332.12,498.73 ZM 642.27 373.31 C641.30,373.56 641.85,373.78 643.50,373.81 C645.15,373.83 645.95,373.62 645.27,373.34 C644.59,373.07 643.24,373.05 642.27,373.31 Z" fill="rgb(18,18,17)"/>
<path d="M 383.00 334.12 C383.00,330.34 385.55,328.01 386.48,330.95 C387.34,333.64 389.17,333.54 395.73,330.43 C399.47,328.66 400.99,327.42 400.61,326.43 C400.21,325.40 400.85,325.00 402.91,325.00 C405.69,325.00 408.88,322.55 407.68,321.34 C407.34,321.01 407.55,319.84 408.14,318.73 C408.77,317.56 409.48,317.16 409.86,317.76 C410.21,318.33 411.40,318.96 412.50,319.15 C415.09,319.60 417.30,321.71 416.51,322.98 C416.17,323.53 416.49,323.75 417.21,323.47 C417.93,323.19 419.52,320.84 420.73,318.23 C421.94,315.63 425.32,309.87 428.24,305.43 C433.36,297.66 433.48,297.31 431.63,295.88 C429.96,294.59 429.88,294.09 431.01,291.95 C431.72,290.60 432.63,289.27 433.02,289.00 C433.42,288.73 434.70,286.92 435.87,285.00 C438.15,281.22 438.31,281.17 440.61,283.46 C441.45,284.31 442.59,285.00 443.14,285.00 C443.69,285.00 443.44,284.29 442.57,283.43 C440.59,281.45 440.51,280.35 442.47,281.97 C443.27,282.64 444.51,282.96 445.22,282.67 C446.07,282.33 445.95,282.13 444.86,282.08 C443.95,282.04 442.95,281.30 442.62,280.45 C442.28,279.56 442.44,279.16 443.01,279.51 C443.56,279.84 444.00,279.64 444.00,279.06 C444.00,277.57 446.74,277.73 447.27,279.25 C447.54,280.01 450.44,277.95 454.61,274.06 C463.51,265.74 464.83,264.08 464.27,261.94 C463.70,259.76 467.47,257.34 468.59,259.15 C469.07,259.92 468.87,260.04 468.00,259.50 C467.15,258.98 466.93,259.08 467.38,259.80 C468.27,261.25 470.15,260.48 478.00,255.43 C482.58,252.49 487.63,249.65 492.87,247.04 C482.06,252.51 471.83,259.20 462.59,266.95 C453.62,274.47 440.04,288.37 435.66,294.52 C420.47,315.81 410.24,337.50 406.01,357.39 C405.90,357.91 405.79,358.41 405.69,358.92 C405.88,357.57 405.46,357.09 404.07,356.73 C402.93,356.43 402.00,355.43 402.00,354.51 C402.00,353.59 401.44,353.03 400.75,353.26 C399.40,353.72 399.32,356.15 400.30,368.50 C400.65,372.90 400.95,376.91 400.97,377.42 C401.06,379.89 402.17,376.89 403.20,371.69 C400.65,386.22 400.32,395.58 401.32,409.49 C402.73,428.95 408.45,452.03 415.47,466.50 C417.34,470.35 419.34,474.62 419.92,476.00 C420.98,478.50 423.06,482.06 424.00,483.00 C424.73,483.73 426.90,487.25 427.70,489.00 C428.48,490.71 437.56,502.64 444.70,511.35 C447.34,514.57 454.00,520.80 459.50,525.19 C465.00,529.58 470.52,534.04 471.76,535.09 C473.00,536.14 474.23,537.00 474.49,537.00 C474.75,537.00 477.55,538.66 480.72,540.68 C494.18,549.29 517.21,558.49 535.50,562.56 C564.74,569.07 600.56,565.58 627.50,553.61 C639.59,548.24 654.20,539.91 662.50,533.66 C677.89,522.06 695.07,503.79 703.64,489.90 C707.22,484.10 709.00,482.61 709.00,485.42 C709.00,487.19 706.74,493.70 703.81,500.91 C703.45,500.70 701.63,502.23 700.00,504.43 C698.62,506.29 697.16,507.60 696.75,507.34 C696.34,507.09 696.00,507.75 696.00,508.80 C696.00,511.04 692.44,516.53 687.57,521.79 C685.69,523.83 682.84,527.30 681.24,529.50 C676.75,535.69 663.25,549.56 658.68,552.69 C656.42,554.23 653.83,556.17 652.93,557.00 C652.04,557.83 650.44,559.17 649.40,560.00 C648.35,560.83 645.63,562.96 643.36,564.75 C636.69,569.98 607.32,584.33 596.95,587.42 C571.08,595.12 569.63,595.34 543.00,595.42 C514.78,595.51 509.12,594.70 487.01,587.37 C462.11,579.11 436.83,565.07 423.05,551.85 C421.71,550.56 419.16,548.38 417.40,547.00 C413.16,543.70 397.70,526.20 391.77,518.00 C389.19,514.42 386.18,510.33 385.08,508.89 C383.28,506.54 371.00,484.39 371.00,483.50 C371.00,483.30 370.58,482.03 370.07,480.68 L 369.13 478.22 L 363.82 479.96 C357.51,482.02 344.13,483.54 347.75,481.78 C350.43,480.48 350.69,477.24 348.25,475.39 C345.50,473.30 343.98,473.76 342.85,477.00 C342.11,479.11 341.15,480.00 339.59,480.00 C336.10,480.00 334.32,482.10 333.01,487.77 C332.01,492.09 332.04,493.34 333.15,494.67 C334.57,496.39 334.45,499.27 332.82,502.33 C331.94,503.98 331.66,503.83 330.04,500.83 C328.98,498.86 328.64,497.25 329.21,496.89 C329.73,496.55 329.45,496.00 328.58,495.67 C326.40,494.83 326.53,495.45 330.39,504.53 C331.35,506.79 332.37,509.04 333.44,511.27 C331.99,508.39 330.60,505.45 329.26,502.47 C326.92,497.26 324.32,489.48 321.98,481.05 C323.02,482.57 325.05,480.03 324.38,477.39 C324.00,475.85 324.22,475.00 325.01,475.00 C325.85,475.00 326.03,476.01 325.58,478.25 C325.23,480.04 324.93,482.39 324.93,483.49 C324.91,485.12 324.74,485.21 323.97,483.99 C322.53,481.70 322.82,484.12 324.64,489.45 C325.96,493.34 326.45,493.94 327.22,492.58 C327.73,491.66 328.42,488.38 328.73,485.30 C329.07,482.04 328.93,479.92 328.41,480.25 C327.91,480.55 327.40,479.39 327.28,477.65 C327.12,475.40 327.32,474.92 327.97,475.97 C328.48,476.78 329.16,477.17 329.49,476.84 C329.82,476.51 329.40,475.54 328.55,474.69 C327.70,473.84 327.00,472.44 327.00,471.57 C327.00,470.69 326.16,470.00 325.08,470.00 C320.51,470.00 320.06,469.19 320.64,462.16 C320.95,458.50 320.85,450.33 320.42,444.00 C319.75,433.99 319.55,433.10 318.92,437.17 C318.52,439.74 317.71,442.66 317.12,443.67 C316.11,445.42 316.06,445.42 316.03,443.58 C316.01,442.53 315.74,441.93 315.42,442.25 C314.43,443.23 316.28,456.37 318.79,468.37 C317.52,462.78 316.47,457.31 315.79,452.50 C313.78,438.47 314.10,403.78 316.35,391.00 C317.36,385.23 318.46,379.83 318.78,379.00 C319.10,378.17 319.44,376.77 319.54,375.89 C319.63,375.00 319.98,373.20 320.31,371.89 C320.64,370.57 320.99,369.05 321.08,368.50 C321.61,365.42 324.35,357.32 325.22,356.25 C325.79,355.56 325.87,355.00 325.42,355.00 C324.97,355.00 325.14,354.46 325.80,353.80 C326.46,353.14 327.00,351.85 327.00,350.93 C327.00,350.01 328.53,346.28 330.40,342.63 C332.26,338.98 333.61,336.00 333.38,336.00 C332.26,336.00 346.85,310.64 348.92,309.00 C349.26,308.73 350.39,307.15 351.42,305.50 C355.53,298.94 368.74,283.53 376.98,275.68 C406.35,247.73 437.16,232.19 481.50,222.95 C495.94,219.94 526.20,219.19 542.50,221.43 C555.63,223.24 566.96,225.72 568.45,227.11 C568.97,227.60 570.69,228.00 572.26,228.00 C573.86,228.00 574.85,228.43 574.51,228.98 C574.18,229.52 568.75,229.94 562.14,229.93 C550.83,229.90 539.30,231.33 527.94,234.08 C530.59,233.03 530.85,232.01 527.75,231.98 C525.98,231.97 525.81,231.77 526.97,231.04 C528.13,230.30 527.83,229.89 525.50,229.00 C521.72,227.56 511.59,228.51 502.50,231.15 C498.65,232.27 493.92,233.55 492.00,233.99 C490.08,234.43 486.25,235.31 483.50,235.94 C478.52,237.08 459.19,246.01 456.77,248.30 C456.07,248.96 453.25,250.56 450.50,251.86 C445.54,254.19 434.57,261.74 428.73,266.84 C420.60,273.94 414.24,279.87 410.85,283.50 C403.50,291.38 396.78,299.54 396.00,301.50 C395.56,302.60 393.36,306.64 391.10,310.48 C386.65,318.07 386.34,319.00 388.29,319.00 C389.00,319.00 390.30,320.59 391.18,322.52 C392.68,325.83 392.67,326.11 390.95,327.02 C388.24,328.47 385.87,328.21 384.48,326.30 C383.38,324.80 383.01,325.07 381.12,328.76 C378.70,333.51 378.46,335.61 380.25,336.34 C382.62,337.29 383.00,336.99 383.00,334.12 ZM 500.17 515.25 C500.49,495.91 500.33,494.42 497.27,489.11 C497.15,488.89 496.41,489.24 495.63,489.89 C494.64,490.72 494.20,493.48 494.15,499.28 C494.12,503.80 493.95,511.55 493.79,516.50 C493.50,525.49 493.50,525.50 490.75,525.82 C489.24,525.99 488.00,526.58 488.00,527.13 C488.00,527.67 487.44,527.78 486.75,527.37 C485.97,526.90 486.04,527.28 486.93,528.38 C487.45,529.02 488.74,529.97 490.30,530.96 C485.58,528.19 480.61,524.83 480.17,523.79 C479.98,523.35 479.20,523.00 478.42,523.00 C477.64,523.00 477.00,522.55 477.00,522.00 C477.00,521.45 476.34,521.00 475.52,521.00 C474.71,521.00 473.31,519.88 472.41,518.50 C471.51,517.12 470.25,516.00 469.61,516.00 C469.02,516.00 465.80,513.19 462.25,509.60 C462.56,509.86 462.78,510.00 462.88,510.00 C463.27,510.00 463.57,508.76 463.55,507.25 C463.51,505.09 462.96,504.43 461.00,504.16 C457.91,503.74 454.77,501.05 455.41,499.39 C455.67,498.70 455.23,497.61 454.44,496.95 C453.65,496.29 453.00,496.09 453.00,496.50 C453.00,496.91 452.31,496.68 451.48,495.98 C450.64,495.28 449.76,494.90 449.53,495.13 C449.38,495.28 450.32,496.55 451.76,498.29 C449.78,496.01 447.55,493.37 444.64,489.90 C441.73,486.43 437.13,479.23 434.54,474.10 C431.25,467.58 431.56,463.56 436.07,454.01 C444.15,436.93 459.89,428.99 483.13,430.27 C491.40,430.72 494.08,431.32 499.68,433.94 C507.30,437.50 514.77,444.64 518.43,451.85 C522.46,459.81 522.24,461.02 515.49,468.21 C507.11,477.15 506.84,477.55 503.59,486.50 C500.81,494.13 500.65,495.44 500.23,514.75 C500.16,518.06 500.08,520.92 499.99,523.36 C500.06,521.05 500.12,518.36 500.17,515.25 ZM 554.41 399.74 C563.74,399.81 568.57,398.61 565.89,396.91 C565.77,396.84 565.65,396.77 565.52,396.71 C568.66,397.31 571.00,398.21 571.00,399.05 C571.00,399.57 571.85,400.00 572.88,400.00 C575.30,400.00 581.65,407.01 584.08,412.36 C586.24,417.12 586.68,430.00 584.90,436.41 C584.32,438.52 582.83,440.93 580.86,443.23 C581.95,441.46 581.74,440.26 580.14,440.38 C578.53,440.50 575.00,444.07 575.00,445.58 C575.00,446.00 574.25,447.17 573.34,448.17 C571.75,449.93 571.80,449.95 574.68,448.51 C575.37,448.17 576.14,447.69 576.89,447.17 C574.03,449.60 570.83,451.57 567.97,452.42 C560.39,454.67 553.55,454.38 546.61,451.53 C540.56,449.04 535.00,444.63 535.00,442.31 C535.00,441.59 534.58,441.00 534.07,441.00 C533.30,441.00 531.80,438.03 531.53,436.00 C531.50,435.73 531.09,434.91 530.63,434.18 C529.18,431.89 528.73,421.66 529.90,417.34 C531.33,412.06 536.82,403.80 539.75,402.51 C540.99,401.97 542.00,401.21 542.00,400.83 C542.00,400.05 545.18,398.74 548.91,397.68 C546.49,398.40 544.50,399.30 543.50,400.30 C542.84,400.96 542.97,401.02 543.91,400.49 C544.69,400.05 549.41,399.71 554.41,399.74 ZM 485.30 420.56 C479.75,422.53 475.25,422.26 468.63,419.54 C457.95,415.15 453.43,408.39 453.08,396.33 C452.78,386.05 457.15,378.69 466.50,373.69 C471.84,370.83 483.85,370.67 489.00,373.38 C501.99,380.23 506.52,395.92 499.34,409.13 C496.56,414.23 491.51,418.34 485.30,420.56 ZM 648.75 419.36 C650.56,418.23 650.78,417.62 649.90,416.21 C649.01,414.78 647.53,414.50 641.77,414.67 C637.89,414.78 634.28,415.32 633.74,415.86 C633.20,416.40 632.18,416.62 631.48,416.35 C630.78,416.08 629.90,416.35 629.54,416.93 C628.81,418.11 625.86,416.93 622.73,414.20 C621.38,413.02 621.26,412.46 622.20,411.88 C622.88,411.45 623.09,410.76 622.67,410.33 C622.24,409.91 621.54,410.13 621.10,410.84 C619.94,412.72 617.00,407.83 617.00,404.02 C617.00,402.34 616.45,400.09 615.77,399.01 C614.88,397.58 614.83,396.29 615.58,394.27 C616.15,392.75 616.34,390.38 616.01,389.00 C615.69,387.68 615.50,387.12 615.27,387.25 C617.08,381.44 621.00,377.06 627.11,373.94 C628.46,373.26 630.14,372.72 631.99,372.35 C631.45,372.59 631.18,372.89 631.25,373.25 C631.39,373.94 632.17,374.81 633.00,375.18 C635.38,376.26 646.00,376.11 646.00,375.00 C646.00,374.45 646.70,374.00 647.56,374.00 C648.42,374.00 648.90,374.35 648.63,374.79 C648.37,375.22 649.01,375.57 650.07,375.57 C653.28,375.57 652.24,374.14 648.25,373.07 C645.04,372.21 641.24,371.76 638.04,371.69 C642.77,371.56 647.60,372.27 650.63,373.81 C662.06,379.64 666.74,395.84 660.61,408.36 C657.88,413.94 653.28,417.94 646.82,420.36 C647.49,420.07 648.14,419.74 648.75,419.36 ZM 589.53 475.04 C587.97,473.41 586.32,472.30 585.86,472.59 C585.40,472.87 585.28,472.44 585.59,471.62 C585.82,471.02 585.45,470.31 584.62,469.59 C588.62,472.42 592.65,476.17 594.99,479.64 C595.55,480.47 596.08,481.29 596.57,482.11 C594.90,479.60 593.25,478.07 592.32,478.43 C591.63,478.70 590.36,478.22 589.51,477.37 C586.91,474.76 584.61,475.05 583.30,478.15 C582.24,480.66 581.58,481.00 577.77,481.00 C575.39,481.00 572.51,480.35 571.37,479.54 C569.47,478.21 569.06,478.33 566.62,480.88 C564.10,483.50 564.03,483.83 565.41,486.48 C566.21,488.03 567.45,489.66 568.16,490.10 C569.17,490.72 569.13,490.98 567.97,491.29 C567.16,491.52 565.04,492.18 563.25,492.76 C560.84,493.55 560.00,493.53 559.98,492.66 C559.98,492.00 559.55,492.15 559.00,493.00 C558.27,494.13 558.03,493.69 558.02,491.16 L 558.00 487.83 L 551.75 488.28 C548.31,488.53 543.36,489.52 540.75,490.48 C536.01,492.23 536.00,492.25 536.00,496.92 C536.00,501.82 534.74,504.00 531.92,504.00 C531.00,504.00 529.70,505.31 529.04,506.90 C527.71,510.11 523.33,514.67 522.44,513.77 C522.13,513.46 521.82,509.28 521.75,504.47 C521.66,497.72 521.98,495.49 523.15,494.62 C523.99,494.00 524.95,492.15 525.29,490.50 C525.64,488.85 525.68,488.06 525.38,488.75 C524.58,490.57 522.68,490.28 523.38,488.45 C523.75,487.48 523.57,487.15 522.88,487.57 C522.14,488.03 522.02,487.52 522.50,486.00 C522.99,484.47 522.86,483.97 522.11,484.43 C521.50,484.81 521.00,484.55 521.00,483.84 C521.00,482.91 520.60,482.98 519.50,484.07 C517.30,486.27 513.83,496.83 514.30,499.88 C514.65,502.19 514.72,502.11 514.85,499.28 C514.96,496.86 515.37,496.21 516.50,496.64 C517.33,496.95 517.99,498.18 517.98,499.36 C517.97,501.11 517.79,501.23 517.00,500.00 C516.17,498.72 516.03,498.75 516.02,500.25 C516.01,501.21 516.44,502.00 516.97,502.00 C517.56,502.00 517.60,502.88 517.08,504.25 C516.61,505.49 515.50,506.44 514.61,506.36 C514.00,506.31 513.62,506.50 513.39,507.19 L 513.53 495.50 L 517.33 487.71 C522.16,477.80 525.34,474.23 533.98,469.01 C541.87,464.25 544.85,463.40 557.03,462.44 C564.30,461.87 566.19,462.05 569.08,463.58 C570.96,464.58 573.31,465.27 574.31,465.13 C576.22,464.84 579.54,466.26 583.07,468.55 C581.76,467.82 580.02,467.12 578.00,466.56 C576.09,466.03 575.86,466.12 577.00,466.92 C578.22,467.78 578.04,467.99 576.00,468.05 C573.70,468.13 573.66,468.21 575.50,469.00 C577.13,469.70 577.19,469.87 575.81,469.93 C574.88,469.97 573.80,470.52 573.40,471.15 C572.95,471.88 573.13,472.04 573.89,471.57 C574.55,471.16 575.63,471.28 576.30,471.83 C576.96,472.38 579.08,473.05 581.00,473.32 C582.93,473.60 584.50,473.89 584.50,473.98 C584.50,474.08 585.35,474.31 586.40,474.51 C587.44,474.71 589.00,475.57 589.86,476.43 C592.72,479.29 592.43,478.06 589.53,475.04 ZM 601.87 465.95 C601.81,465.15 601.82,462.59 601.90,460.25 C601.99,457.90 601.60,456.00 601.03,456.00 C599.54,456.00 599.77,450.70 601.35,448.54 C603.13,446.10 605.13,447.44 604.78,450.83 C604.29,455.57 607.36,454.06 608.49,449.00 C609.90,442.72 610.58,442.00 615.12,442.00 C617.89,442.00 618.90,441.65 618.40,440.84 C617.90,440.03 618.41,439.87 620.09,440.29 C622.39,440.87 622.41,440.84 620.56,439.45 C619.49,438.65 619.04,437.99 619.56,437.98 C620.08,437.98 619.90,437.59 619.18,437.13 C618.11,436.45 618.17,435.97 619.50,434.65 C621.35,432.80 623.00,432.49 623.00,434.00 C623.00,434.55 623.67,435.00 624.50,435.00 C625.33,435.00 626.00,435.45 626.00,436.00 C626.00,436.55 626.85,437.00 627.89,437.00 C630.51,437.00 631.19,439.40 628.97,440.78 C627.97,441.41 627.00,442.91 626.82,444.11 C626.53,446.09 625.61,446.87 621.02,449.00 C620.21,449.38 619.30,450.73 619.00,452.00 C618.70,453.27 617.79,454.62 616.98,455.00 C611.84,457.39 611.49,457.79 611.20,461.77 C611.01,464.23 610.30,466.05 609.39,466.40 C608.55,466.73 608.16,466.55 608.51,465.99 C608.84,465.44 608.67,465.00 608.12,465.00 C607.57,465.00 606.84,465.45 606.50,466.00 C606.16,466.55 605.35,466.99 604.69,466.98 C603.98,466.98 604.10,466.58 605.00,466.00 C605.83,465.47 606.03,465.02 605.45,465.02 C604.87,465.01 603.86,465.54 603.20,466.20 C602.27,467.13 601.97,467.08 601.87,465.95 ZM 319.41 385.00 L 318.70 380.50 L 317.47 386.50 C315.65,395.46 314.87,404.17 316.18,401.00 C317.16,398.62 317.25,398.59 318.03,400.50 C318.49,401.60 318.98,403.62 319.14,405.00 C319.29,406.38 319.57,403.45 319.76,398.50 C319.96,393.55 319.80,387.48 319.41,385.00 ZM 410.77 340.81 C411.73,338.26 411.70,337.31 410.66,336.06 C409.21,334.34 408.62,329.65 409.96,330.47 C410.41,330.76 411.09,330.22 411.45,329.27 C411.81,328.33 411.78,327.89 411.38,328.28 C410.99,328.68 409.88,328.30 408.92,327.43 C407.33,325.99 407.13,326.02 406.57,327.78 C406.24,328.83 406.65,331.00 407.49,332.60 C408.53,334.59 408.82,336.84 408.39,339.75 C407.66,344.75 409.05,345.37 410.77,340.81 ZM 577.32 490.34 C577.69,489.98 577.50,489.10 576.91,488.39 C575.33,486.49 576.70,485.00 580.00,485.00 C583.30,485.00 584.67,486.49 583.09,488.39 C582.50,489.10 582.31,489.98 582.68,490.34 C583.04,490.70 581.83,491.00 580.00,491.00 C578.17,491.00 576.96,490.70 577.32,490.34 ZM 641.92 421.57 C632.85,422.61 622.64,417.82 617.55,409.59 C616.73,408.26 616.11,407.11 615.63,405.94 C617.76,410.49 622.84,415.88 627.12,418.06 L 627.54 418.28 C630.00,419.53 630.95,420.02 631.71,419.81 C632.23,419.67 632.66,419.20 633.43,418.43 C634.29,417.56 635.00,417.34 635.00,417.93 C635.00,418.52 637.12,419.06 639.75,419.14 C642.36,419.21 643.48,419.47 642.24,419.71 C640.99,419.95 640.23,420.56 640.55,421.08 C640.74,421.39 641.24,421.55 641.92,421.57 ZM 404.16 436.08 C404.37,432.53 404.04,428.79 403.36,427.00 C402.46,424.64 401.15,428.67 401.07,434.08 C401.02,437.52 401.37,438.67 402.50,438.67 C403.41,438.67 404.06,437.64 404.16,436.08 ZM 536.09 471.95 C537.17,471.37 537.76,470.42 537.40,469.84 C537.04,469.25 537.36,468.38 538.12,467.90 C540.42,466.45 541.33,466.89 539.87,468.75 C538.63,470.33 538.67,470.37 540.24,469.14 C541.20,468.39 541.73,467.37 541.43,466.89 C541.13,466.40 541.47,465.96 542.19,465.92 C543.16,465.86 543.18,465.71 542.28,465.35 C540.96,464.81 530.00,470.96 530.00,472.23 C530.00,473.35 533.81,473.17 536.09,471.95 ZM 513.28 516.50 L 513.28 515.81 C513.39,516.92 513.53,517.36 513.67,516.84 C513.92,515.92 514.76,514.92 515.56,514.62 C516.61,514.21 517.00,514.85 517.00,516.98 C517.00,520.99 514.92,525.47 513.84,523.78 C513.57,523.34 513.36,523.21 513.22,523.38 C513.23,521.18 513.25,518.86 513.28,516.50 ZM 622.42 559.39 C623.92,558.82 624.71,556.00 623.37,556.00 C621.19,556.00 615.16,558.44 615.59,559.15 C616.20,560.14 620.12,560.28 622.42,559.39 ZM 489.00 522.10 C489.00,520.53 488.13,520.13 484.00,519.85 C481.25,519.66 479.00,519.84 479.00,520.25 C479.00,521.06 480.47,521.34 483.25,521.05 C484.25,520.95 485.00,521.55 485.00,522.44 C485.00,523.33 485.85,524.00 487.00,524.00 C488.30,524.00 489.00,523.33 489.00,522.10 ZM 528.07 479.01 C528.70,474.31 528.83,473.00 528.63,473.00 C528.50,473.00 526.92,474.52 525.11,476.39 L 521.83 479.77 L 524.91 479.65 C526.61,479.58 528.03,479.29 528.07,479.01 ZM 638.03 438.02 C636.16,436.86 637.54,434.00 639.97,434.00 C641.09,434.00 642.33,433.97 642.72,433.92 C644.39,433.75 643.77,435.62 641.64,437.17 C640.26,438.17 638.82,438.51 638.03,438.02 ZM 557.34 464.00 C560.04,464.00 561.07,463.67 560.40,463.00 C559.32,461.92 545.36,463.26 544.17,464.56 C543.80,464.96 545.70,464.99 548.39,464.64 C551.08,464.29 555.11,464.00 557.34,464.00 ZM 547.38 565.89 C550.30,565.78 550.24,565.72 546.50,564.94 C539.79,563.56 536.97,563.76 537.68,565.60 C538.13,566.77 539.08,567.03 541.27,566.60 C542.91,566.27 545.66,565.95 547.38,565.89 ZM 659.73 408.91 C659.90,406.67 656.33,405.71 655.53,407.78 C655.20,408.64 655.48,409.68 656.15,410.09 C657.09,410.67 657.04,411.26 655.94,412.63 C654.67,414.20 654.80,414.19 657.05,412.51 C658.45,411.47 659.66,409.85 659.73,408.91 ZM 655.04 543.06 C655.33,543.03 655.64,542.10 655.72,541.01 C655.86,539.14 655.70,539.11 653.19,540.47 C647.09,543.77 647.24,543.99 655.04,543.06 ZM 621.78 432.34 C620.66,432.81 619.40,433.41 617.81,434.17 C608.34,438.69 602.25,444.18 598.14,451.89 C594.71,458.32 594.31,460.48 596.30,461.70 C597.89,462.67 602.14,467.91 605.75,472.97 C604.37,471.28 602.81,469.54 601.06,467.70 L 593.89 460.15 L 597.05 453.83 C601.04,445.82 605.78,440.85 614.00,436.04 C616.69,434.46 619.20,433.25 621.78,432.34 ZM 439.00 451.64 C439.00,448.87 437.51,450.51 435.48,455.50 L 433.86 459.50 L 436.43 456.59 C437.84,455.00 439.00,452.77 439.00,451.64 ZM 685.20 515.60 C686.74,514.01 688.00,512.49 688.00,512.23 C688.00,511.09 683.41,514.96 681.07,518.08 C678.18,521.93 680.32,520.64 685.20,515.60 ZM 658.26 388.89 C657.62,386.46 656.37,386.47 655.73,388.92 C655.13,391.20 657.02,393.59 658.07,391.88 C658.45,391.28 658.53,389.93 658.26,388.89 ZM 513.22 526.12 C513.40,526.54 513.68,526.70 514.00,526.50 C514.60,526.13 515.00,527.51 515.00,530.00 C515.00,532.73 514.63,533.89 513.90,533.44 C513.61,533.26 513.41,533.29 513.29,533.55 C513.25,531.45 513.23,528.91 513.22,526.12 ZM 633.22 590.20 C652.41,576.32 669.54,558.86 683.96,538.24 C670.22,558.51 652.93,576.10 633.22,590.20 ZM 469.99 534.25 C469.99,533.84 468.86,532.98 467.49,532.34 C464.72,531.06 464.38,531.38 466.25,533.50 C467.58,535.02 470.01,535.50 469.99,534.25 ZM 648.39 430.50 L 639.00 430.50 C633.81,430.50 630.62,430.50 628.21,430.71 C632.10,430.08 636.51,429.94 642.07,430.15 C644.69,430.25 646.70,430.34 648.39,430.50 ZM 519.78 544.02 C523.09,545.27 527.30,546.64 531.00,547.58 C539.63,549.80 549.76,551.21 559.74,551.73 C554.38,551.54 549.35,551.14 545.50,550.53 C534.75,548.81 525.52,546.42 519.78,544.02 ZM 613.84 488.51 C615.86,494.98 616.31,501.85 616.72,519.75 C616.38,505.09 615.73,495.71 613.84,488.51 ZM 630.50 418.00 C630.84,417.45 631.32,417.00 631.56,417.00 C631.80,417.00 632.00,417.45 632.00,418.00 C632.00,418.55 631.52,419.00 630.94,419.00 C630.36,419.00 630.16,418.55 630.50,418.00 ZM 361.24 553.86 C374.11,569.06 389.43,582.90 406.53,594.63 C389.10,582.68 374.07,569.16 361.24,553.86 ZM 332.12 498.73 C331.14,497.75 331.02,497.87 331.56,499.29 C331.94,500.28 332.50,500.83 332.81,500.53 C333.11,500.22 332.81,499.41 332.12,498.73 ZM 642.27 373.31 C643.24,373.05 644.59,373.07 645.27,373.34 C645.95,373.62 645.15,373.83 643.50,373.81 C641.85,373.78 641.30,373.56 642.27,373.31 ZM 513.38 536.73 C513.58,538.09 513.75,539.40 513.86,540.24 C513.74,540.05 513.66,539.86 513.61,539.67 C513.52,539.34 513.44,538.31 513.38,536.73 ZM 602.12 496.37 C603.55,503.43 604.00,512.58 604.00,526.55 C604.00,512.47 603.47,503.27 602.12,496.37 ZM 551.05 397.12 C553.74,396.46 556.45,396.00 558.29,396.01 C558.44,396.01 558.58,396.01 558.73,396.01 C556.26,396.14 553.54,396.54 551.05,397.12 ZM 403.87 367.98 C404.49,364.54 405.17,361.14 405.48,359.90 C404.88,362.78 404.35,365.46 403.87,367.98 ZM 694.01 521.76 C694.94,520.02 695.89,518.22 696.79,516.48 C695.89,518.25 694.96,520.01 694.01,521.76 ZM 497.07 534.51 C497.76,534.78 498.32,534.94 498.67,534.95 C498.71,534.95 498.75,534.95 498.78,534.93 C498.74,534.96 498.69,534.98 498.65,534.98 C498.33,534.98 497.78,534.81 497.07,534.51 ZM 669.86 440.26 C673.94,443.44 677.00,446.73 677.00,448.42 C677.00,446.74 673.94,443.44 669.86,440.26 ZM 702.57 503.90 C702.69,503.54 702.86,503.14 703.04,502.78 C702.89,503.16 702.73,503.53 702.57,503.90 Z" fill="rgb(37,37,37)"/>
<path d="M 788.45 757.22 C792.99,745.02 800.00,725.03 800.00,723.78 C800.00,719.93 801.64,722.41 804.63,730.76 C806.90,737.09 808.79,742.34 810.39,746.69 C809.27,743.75 808.14,740.74 807.14,738.02 C804.39,730.61 801.78,724.43 801.32,724.28 C800.87,724.13 797.38,732.67 793.57,743.25 C791.73,748.35 789.92,753.30 788.45,757.22 ZM 573.74 228.16 C574.59,228.33 575.27,228.62 575.47,228.96 C575.80,229.48 576.68,229.68 577.43,229.39 C578.18,229.10 579.14,229.41 579.55,230.08 C580.12,231.01 578.82,231.13 573.99,230.58 C570.69,230.21 567.32,229.99 563.89,229.92 C569.68,229.86 574.21,229.47 574.51,228.98 C574.73,228.63 574.41,228.33 573.74,228.16 ZM 469.91 261.19 C464.42,265.41 458.42,270.58 452.88,275.81 C456.29,272.50 459.68,269.39 462.59,266.95 C464.97,264.96 467.41,263.04 469.91,261.19 ZM 544.25 231.06 C538.71,231.79 533.10,232.86 527.50,234.24 C527.65,234.19 527.80,234.13 527.94,234.08 C533.35,232.77 538.80,231.76 544.25,231.06 ZM 519.86 236.33 C515.02,237.78 510.20,239.46 505.45,241.36 C510.37,239.37 515.26,237.65 519.86,236.33 ZM 783.83 767.28 C782.78,767.95 780.98,768.00 776.58,768.00 C780.72,768.00 782.73,767.84 783.83,767.28 ZM 817.37 764.56 L 818.67 767.50 L 818.55 767.50 Z" fill="rgb(153,153,149)"/>
<path d="M 0.00 512.00 L 0.00 0.00 L 512.00 0.00 L 1024.00 0.00 L 1024.00 512.00 L 1024.00 1024.00 L 512.00 1024.00 L 0.00 1024.00 L 0.00 512.00 ZM 591.50 767.27 C598.49,765.11 602.79,762.74 607.99,758.19 L 612.48 754.26 L 607.49 749.67 C604.74,747.14 602.17,745.06 601.77,745.04 C601.37,745.02 598.67,746.80 595.77,749.01 C589.50,753.78 585.69,754.99 577.00,754.98 C568.53,754.98 561.15,751.63 554.84,744.91 C549.23,738.96 547.00,733.00 547.00,724.00 C547.00,715.44 549.17,709.23 554.11,703.61 C565.03,691.20 584.44,690.04 598.10,700.98 L 601.71 703.86 L 606.94 698.56 L 612.17 693.27 L 607.76 689.66 C593.27,677.78 570.39,675.99 552.35,685.32 C546.52,688.34 539.31,695.87 535.73,702.71 C528.61,716.30 528.82,734.44 536.24,746.79 C547.09,764.84 570.87,773.66 591.50,767.27 ZM 334.07 765.80 C341.12,762.60 346.48,757.16 350.13,749.50 C352.57,744.40 353.00,742.26 353.00,735.29 C353.00,720.39 347.40,710.79 335.23,704.79 C328.96,701.70 327.90,701.50 318.02,701.50 C308.74,701.50 306.84,701.81 301.88,704.14 C294.26,707.71 288.61,713.05 285.29,719.84 C282.89,724.75 282.52,726.70 282.51,734.50 C282.51,745.22 284.70,751.03 291.30,757.83 C295.84,762.52 299.01,764.54 306.00,767.23 C312.80,769.84 326.71,769.13 334.07,765.80 ZM 411.33 767.06 C423.51,762.87 431.48,753.90 434.01,741.54 C437.45,724.70 427.93,707.84 412.25,702.99 C393.26,697.13 374.58,703.94 366.91,719.54 C364.10,725.24 363.64,727.23 363.62,733.83 C363.58,743.93 365.90,750.56 371.71,757.02 C381.47,767.88 397.29,771.89 411.33,767.06 ZM 724.62 766.11 C727.43,764.88 731.12,762.43 732.81,760.68 L 735.88 757.50 L 732.02 753.25 C727.63,748.43 727.00,748.23 724.53,750.96 C721.37,754.46 714.70,756.32 707.25,755.79 C698.97,755.19 694.87,753.18 690.98,747.81 C685.21,739.84 684.57,740.07 713.75,739.77 L 739.50 739.50 L 739.79 733.40 C740.36,721.73 733.80,710.53 722.86,704.47 C717.87,701.71 716.77,701.50 706.98,701.50 C697.10,701.50 696.05,701.70 689.77,704.79 C677.86,710.66 672.00,720.45 672.00,734.50 C672.00,750.88 680.08,761.94 695.84,767.14 C703.72,769.74 717.47,769.25 724.62,766.11 ZM 185.00 739.50 L 185.50 711.50 L 190.74 720.00 C193.63,724.67 199.93,735.03 204.74,743.00 C213.18,756.97 213.63,757.51 217.05,757.80 C219.50,758.00 221.09,757.54 222.16,756.30 C223.67,754.56 239.59,728.02 245.58,717.25 C247.19,714.36 248.83,712.00 249.23,712.00 C249.64,712.00 250.09,724.49 250.23,739.75 L 250.50 767.50 L 258.00 767.50 L 265.50 767.50 L 265.76 724.25 L 266.02 681.00 L 258.76 681.01 L 251.50 681.01 L 240.11 700.26 C233.84,710.84 226.42,723.42 223.61,728.20 C220.80,732.99 218.27,736.92 218.00,736.93 C217.73,736.94 215.43,733.47 212.90,729.23 C210.38,724.98 203.71,714.09 198.09,705.03 C192.47,695.97 186.92,686.86 185.76,684.78 L 183.63 681.00 L 176.32 681.00 L 169.00 681.00 L 169.00 724.54 L 169.00 768.08 L 176.75 767.79 L 184.50 767.50 L 185.00 739.50 ZM 465.02 747.50 C465.58,725.82 466.41,722.18 471.76,717.98 C478.02,713.05 489.90,713.05 494.83,717.98 C499.25,722.40 500.00,726.81 500.00,748.37 L 500.00 768.00 L 507.50 768.00 L 515.00 768.00 L 515.00 745.04 C515.00,724.53 514.79,721.50 513.00,716.74 C509.40,707.11 501.85,701.96 490.25,701.21 C481.80,700.66 475.88,702.06 469.48,706.11 L 465.00 708.96 L 465.00 705.48 L 465.00 702.00 L 457.50 702.00 L 450.00 702.00 L 450.00 735.04 L 450.00 768.09 L 457.25 767.79 L 464.50 767.50 L 465.02 747.50 ZM 641.05 748.00 C641.61,728.05 641.86,726.58 645.43,721.65 C648.37,717.61 652.07,716.00 658.45,716.00 L 664.00 716.00 L 664.00 708.50 L 664.00 701.00 L 659.75 701.01 C654.96,701.02 646.48,704.62 643.60,707.86 C640.84,710.95 640.00,710.52 640.00,706.00 L 640.00 702.00 L 633.00 702.00 L 626.00 702.00 L 626.00 735.04 L 626.00 768.09 L 633.25 767.79 L 640.50 767.50 L 641.05 748.00 ZM 785.29 765.25 C786.03,763.74 789.76,753.84 793.57,743.25 C797.38,732.67 800.87,724.13 801.32,724.28 C801.78,724.43 804.39,730.61 807.14,738.02 C809.88,745.44 813.57,755.10 815.34,759.50 L 818.55 767.50 L 826.39 767.50 L 834.23 767.50 L 836.72 760.50 C838.09,756.65 841.45,747.42 844.19,740.00 C846.92,732.58 850.89,721.78 852.99,716.00 C855.09,710.22 857.13,704.71 857.51,703.75 C858.14,702.18 857.46,702.00 850.74,702.00 L 843.26 702.00 L 839.49 712.75 C831.51,735.48 826.68,748.00 825.90,748.00 C825.46,748.00 824.65,746.54 824.11,744.75 C823.57,742.96 822.45,739.70 821.63,737.50 C819.83,732.70 812.41,712.21 810.31,706.25 L 808.81 702.00 L 801.53 702.00 L 794.24 702.00 L 792.14 707.75 C789.79,714.15 782.92,733.40 779.83,742.25 C778.72,745.41 777.51,748.00 777.14,748.00 C776.78,748.00 774.56,742.49 772.22,735.75 C769.89,729.01 766.26,718.78 764.16,713.00 L 760.35 702.50 L 752.68 702.21 C748.45,702.05 745.00,702.15 745.00,702.44 C745.00,702.74 746.83,707.82 749.07,713.74 C751.31,719.66 755.98,732.38 759.46,742.00 C762.94,751.62 766.56,761.41 767.50,763.75 L 769.22 768.00 L 776.58 768.00 C783.63,768.00 784.01,767.88 785.29,765.25 ZM 540.50 626.55 C606.94,618.59 667.00,576.05 697.29,515.48 C702.55,504.96 709.00,488.41 709.00,485.42 C709.00,482.61 707.22,484.10 703.64,489.90 C695.07,503.79 677.89,522.06 662.50,533.66 C654.20,539.91 639.59,548.24 627.50,553.61 C600.56,565.58 564.74,569.07 535.50,562.56 C517.21,558.49 494.18,549.29 480.72,540.68 C477.55,538.66 474.75,537.00 474.49,537.00 C474.23,537.00 473.00,536.14 471.76,535.09 C470.52,534.04 465.00,529.58 459.50,525.19 C454.00,520.80 447.34,514.57 444.70,511.35 C437.56,502.64 428.48,490.71 427.70,489.00 C426.90,487.25 424.73,483.73 424.00,483.00 C423.06,482.06 420.98,478.50 419.92,476.00 C419.34,474.62 417.34,470.35 415.47,466.50 C408.45,452.03 402.73,428.95 401.32,409.49 C400.03,391.52 400.96,381.15 406.01,357.39 C410.24,337.50 420.47,315.81 435.66,294.52 C443.48,283.56 464.32,264.27 477.59,255.71 C506.95,236.76 543.79,227.16 573.99,230.58 C578.82,231.13 580.12,231.01 579.55,230.08 C579.14,229.41 578.18,229.10 577.43,229.39 C576.68,229.68 575.80,229.48 575.47,228.96 C575.15,228.43 573.65,228.00 572.14,228.00 C570.63,228.00 568.97,227.60 568.45,227.11 C566.96,225.72 555.63,223.24 542.50,221.43 C526.20,219.19 495.94,219.94 481.50,222.95 C437.16,232.19 406.35,247.73 376.98,275.68 C368.74,283.53 355.53,298.94 351.42,305.50 C350.39,307.15 349.26,308.73 348.92,309.00 C346.85,310.64 332.26,336.00 333.38,336.00 C333.61,336.00 332.26,338.98 330.40,342.63 C328.53,346.28 327.00,350.01 327.00,350.93 C327.00,351.85 326.46,353.14 325.80,353.80 C325.14,354.46 324.97,355.00 325.42,355.00 C325.87,355.00 325.79,355.56 325.22,356.25 C324.35,357.32 321.61,365.42 321.08,368.50 C320.99,369.05 320.64,370.57 320.31,371.89 C319.98,373.20 319.63,375.00 319.54,375.89 C319.44,376.77 319.10,378.17 318.78,379.00 C318.46,379.83 317.36,385.23 316.35,391.00 C314.10,403.78 313.78,438.47 315.79,452.50 C318.05,468.36 324.24,491.31 329.26,502.47 C346.42,540.59 371.70,570.75 406.53,594.63 C414.35,599.99 433.45,610.07 443.00,613.88 C456.96,619.44 478.25,624.88 494.00,626.91 C504.56,628.27 527.61,628.09 540.50,626.55 ZM 587.00 550.61 C591.67,549.85 597.41,548.71 599.75,548.07 L 604.00 546.92 L 604.00 526.55 C604.00,499.37 602.29,490.45 594.99,479.64 C590.26,472.63 578.64,464.48 574.31,465.13 C573.31,465.27 570.96,464.58 569.08,463.58 C566.19,462.05 564.30,461.87 557.03,462.44 C544.85,463.40 541.87,464.25 533.98,469.01 C525.34,474.23 522.16,477.80 517.33,487.71 L 513.53 495.50 L 513.28 516.50 C513.13,528.05 513.28,538.48 513.61,539.67 C514.55,543.16 528.01,547.74 545.50,550.53 C556.34,552.26 576.64,552.30 587.00,550.61 ZM 621.63 541.39 C631.60,537.24 645.57,529.60 652.68,524.40 C656.98,521.25 665.79,513.42 672.25,507.00 L 684.00 495.33 L 684.00 480.27 C684.00,468.03 683.63,464.00 682.00,458.73 C680.90,455.16 679.32,451.68 678.50,451.00 C677.67,450.31 677.00,449.15 677.00,448.42 C677.00,445.53 668.03,437.91 660.33,434.26 C653.16,430.85 651.63,430.50 642.07,430.15 C629.16,429.67 622.49,431.07 614.00,436.04 C605.78,440.85 601.04,445.82 597.05,453.83 L 593.89 460.15 L 601.06 467.70 C613.84,481.15 616.00,488.33 616.72,519.75 C617.01,532.54 617.37,543.00 617.50,543.00 C617.64,543.00 619.50,542.28 621.63,541.39 ZM 500.23 514.75 C500.65,495.44 500.81,494.13 503.59,486.50 C506.84,477.55 507.11,477.15 515.49,468.21 C522.24,461.02 522.46,459.81 518.43,451.85 C514.77,444.64 507.30,437.50 499.68,433.94 C494.08,431.32 491.40,430.72 483.13,430.27 C459.89,428.99 444.15,436.93 436.07,454.01 C431.56,463.56 431.25,467.58 434.54,474.10 C437.13,479.23 441.73,486.43 444.64,489.90 C452.39,499.16 455.37,502.51 461.42,508.75 C465.29,512.74 468.97,516.00 469.61,516.00 C470.25,516.00 471.51,517.12 472.41,518.50 C473.31,519.88 474.71,521.00 475.52,521.00 C476.34,521.00 477.00,521.45 477.00,522.00 C477.00,522.55 477.64,523.00 478.42,523.00 C479.20,523.00 479.98,523.35 480.17,523.79 C480.96,525.66 496.29,534.94 498.65,534.98 C499.46,534.99 499.92,529.08 500.23,514.75 ZM 567.97 452.42 C574.67,450.43 583.27,442.30 584.90,436.41 C586.68,430.00 586.24,417.12 584.08,412.36 C581.65,407.01 575.30,400.00 572.88,400.00 C571.85,400.00 571.00,399.57 571.00,399.05 C571.00,397.63 564.23,396.01 558.29,396.01 C553.34,396.00 542.00,399.36 542.00,400.83 C542.00,401.21 540.99,401.97 539.75,402.51 C536.82,403.80 531.33,412.06 529.90,417.34 C528.73,421.66 529.18,431.89 530.63,434.18 C531.09,434.91 531.50,435.73 531.53,436.00 C531.80,438.03 533.30,441.00 534.07,441.00 C534.58,441.00 535.00,441.59 535.00,442.31 C535.00,444.63 540.56,449.04 546.61,451.53 C553.55,454.38 560.39,454.67 567.97,452.42 ZM 485.30 420.56 C491.51,418.34 496.56,414.23 499.34,409.13 C506.52,395.92 501.99,380.23 489.00,373.38 C483.85,370.67 471.84,370.83 466.50,373.69 C457.15,378.69 452.78,386.05 453.08,396.33 C453.43,408.39 457.95,415.15 468.63,419.54 C475.25,422.26 479.75,422.53 485.30,420.56 ZM 646.30 420.56 C653.04,418.15 657.81,414.09 660.61,408.36 C666.74,395.84 662.06,379.64 650.63,373.81 C644.95,370.91 632.92,370.98 627.11,373.94 C617.73,378.73 613.52,386.49 614.16,397.82 C614.47,403.34 615.16,405.72 617.55,409.59 C623.48,419.19 636.37,424.10 646.30,420.56 ZM 309.36 753.54 C302.01,749.81 298.87,744.88 298.24,736.09 C297.61,727.30 300.21,721.22 306.30,717.18 C309.74,714.91 311.43,714.50 317.43,714.50 C326.22,714.50 329.54,716.08 333.65,722.22 C345.92,740.55 328.38,763.17 309.36,753.54 ZM 393.09 755.33 C389.42,754.55 380.46,745.07 379.67,741.11 C377.16,728.54 382.17,718.41 392.62,714.96 C397.14,713.47 406.25,714.28 409.60,716.47 C413.37,718.94 417.76,725.65 418.51,730.06 C420.77,743.41 412.65,755.03 400.69,755.59 C397.83,755.72 394.42,755.60 393.09,755.33 ZM 688.00 726.87 C688.00,725.70 688.91,723.27 690.02,721.47 C697.99,708.57 721.12,711.77 724.56,726.25 L 725.22 729.00 L 706.61 729.00 C688.28,729.00 688.00,728.97 688.00,726.87 Z" fill="rgb(240,239,235)"/>
</g>
</svg>